<?xml version="1.0" encoding="UTF-8"?>
<svg xmlns="http://www.w3.org/2000/svg" viewBox="0 0 256 256">
  <defs>
    <style>
      .cls-1 {
        fill: #09f;
        stroke: #fff;
        stroke-width: .5px;
      }

      .cls-2 {
        fill: #00c;
      }

      .cls-2, .cls-3 {
        stroke-width: 0px;
      }

      .cls-3 {
        fill: #003;
      }
    </style>
  </defs>
  <g id="Layer_3" data-name="Layer 3">
    <circle class="cls-3" cx="128" cy="128" r="128"/>
  </g>
  <g id="Layer_1" data-name="Layer 1">
    <g>
      <path class="cls-2" d="M69.35,219.64l-2.31.02-3.78-2.25-1.44-3.34-.5-3.63,8.77-65.79-1.1-3.44-2.31-3.04-2.78-2.04-4.4-1.91-3.69-.04-5.01,1.38-3.18-.26-3.1-1.73-1.6-3.86-1.03.43-.72-1.73-2.83,1.17-8.64-20.85,2.83-1.17-.72-1.73,5.09-2.11-.11-1.17,6.42-2.66.76.9,114.38-47.38,1.11,1.56,44.22-18.32,2.2,5.27,4.26,10.29,2.17,5.29-44.22,18.32.32,1.89-2.34.97,5.57,13.44-1.63,3.07-21.95,9.09-.53,1.2.24,1.43.86,2.55,2.73,6.54,1.32,6.9-1.21,6.51-3.93,5.21-6.21,3.69-6.43,1.57-5.84.17-6.03-.39-3.74-.21-1.68,1.71-1.99,3.01-1.21,2.63-7.63,55.98.87,2.83,2.73,3.5,1.79,3.25-.3,3.06-2.4,2.48-10.03.44.21,1.46-7.15.31-15.51.54-7.56.43-.09-1.45ZM134.13,135.92l5.76-1.17,3.96-2.66-5.58-1.2-4.88-2.97-3.51-4.55-1.74-5.4-.31-1.86-.72-1.03-2.09-.84-2.75-1.58-.74-.6-1.69,1.27-2.57,4.19-.69,4.29.54,3.79,1.3,2.7,1.09,1.59,1.79,1.4,2.79,2.58,4.72,1.92,5.32.11ZM146.02,129.33l1.34-2.11.64-5.06-1.38-5.11-3.06-5.4-1.5-2.07-1.66-.95-1.87-.56-2.45-.14-1.46,2.29-.87,4.1-.32,2.13,1.1,5.04,2.51,3.56,3.43,2.45,5.54,1.84Z"/>
      <path class="cls-2" d="M203.13,37.96l1.82,4.35,2.13,5.14,2.13,5.14,1.79,4.37-30.73,12.73-4.53,1.88-8.77,3.63.32,1.89-2.53,1.05,5.77,13.93-1.24,2.34-21.98,9.11-.81,1.84.3,1.8.88,2.63,2.72,6.51,1.27,6.62-1.14,6.1-3.67,4.86-5.91,3.51-6.18,1.51-5.73.17-5.93-.39-4.2-.23-2.07,2.1-2.08,3.15-1.31,2.83-7.68,56.35.98,3.22,2.79,3.58,1.61,2.91-.24,2.4-1.88,1.94-10.73.47.21,1.46-6.05.26-15.5.54-6.59.37-.08-1.41-2.98.03-3.26-1.94-1.26-2.91-.46-3.36,8.78-65.88-1.23-3.82-2.5-3.29-2.99-2.19-4.69-2.03-4.03-.05-4.98,1.37-2.79-.23-2.61-1.45-1.85-4.46-1.03.43-.72-1.73-2.83,1.17-7.87-19,2.83-1.17-.72-1.73,4.85-2.01-.11-1.17,5.06-2.09.76.9,2.65-1.1,3.28-1.36,63.62-26.35,42.24-17.5,2.53-1.05,1.11,1.56,8.77-3.63,4.53-1.88,30.73-12.73M144.23,131.15l-5.59-1.2-4.58-2.79-3.29-4.26-1.66-5.16-.34-2.02-1.02-1.46-2.3-.92-2.62-1.51-1.29-1.04-2.46,1.86-2.77,4.53-.74,4.64.58,4.09,1.4,2.91,1.22,1.78,1.91,1.5,2.86,2.65,5.06,2.06,5.61.12,6.06-1.23,5.03-3.37,3.02-4.75.69-5.48-1.47-5.42-3.15-5.56-1.66-2.29-1.94-1.11-2.1-.63-3.15-.18-1.88,2.93-.45,2.14-.45,2.14-.36,2.37,1.18,5.41,2.73,3.86,3.69,2.64,4.86,1.61-.65,1.14M204.2,35.35l-1.84.76-30.73,12.73-4.53,1.88-7.29,3.02-.19-.26-.92-1.3-1.47.61-2.53,1.05-42.24,17.5-63.62,26.35-3.28,1.36-1.3.54-.76-.9-1.36.56-5.06,2.09-1.37.57.11,1.17-3.48,1.44-1.85.77.72,1.73-.98.41-1.85.77.77,1.85,7.87,19,.77,1.85,1.85-.77.98-.41.72,1.73,1.03-.43,1.09,2.62.27.64.61.34,2.61,1.45.38.21.43.04,2.79.23.35.03.34-.09,4.7-1.3,3.35.04,4.11,1.78,2.57,1.89,2.12,2.79.98,3.07-8.72,65.44-.04.27.04.27.46,3.36.04.27.11.25,1.26,2.91.26.6.56.33,3.26,1.94.48.29h.56s1.08-.01,1.08-.01l.09,1.5,1.99-.11,6.59-.37,15.46-.54,6.07-.26,2.21-.09-.21-1.46,8.53-.37.8-.03.55-.57,1.88-1.94.48-.5.07-.69.24-2.4.06-.62-.3-.54-1.61-2.91-.08-.14-.1-.13-2.57-3.29-.75-2.44,7.58-55.61,1.12-2.42,1.89-2.86,1.3-1.32,3.3.18,5.91.39h.09s.09,0,.09,0l5.73-.17h.21s.21-.06.21-.06l6.18-1.51.29-.07.26-.15,5.91-3.51.34-.2.24-.31,3.67-4.86.28-.38.09-.46,1.14-6.1.07-.37-.07-.37-1.27-6.62-.04-.2-.08-.19-2.69-6.45-.81-2.41-.18-1.06.25-.56,21.24-8.8.66-.28.34-.64,1.24-2.34.44-.83-.36-.87-5-12.08.68-.28,1.47-.61-.27-1.57-.05-.32,7.29-3.02,4.53-1.88,30.73-12.73,1.84-.76-.76-1.84-1.79-4.37-2.13-5.15-2.13-5.14-1.82-4.36-.77-1.84h0ZM135.56,110.61l1.05-1.64,1.75.1,1.65.5,1.37.78,1.34,1.85,2.97,5.24,1.3,4.79-.59,4.64-.81,1.27-.09-.03-4.57-1.51-3.17-2.27-2.3-3.25-1.02-4.66.29-1.95.44-2.08.38-1.78h0ZM120.59,114.02l.91-.69.07.06.12.1.13.08,2.62,1.51.12.07.13.05,1.75.7.42.6.26,1.57.02.14.04.14,1.66,5.16.11.33.21.28,3.29,4.26.23.29.32.19,4.58,2.79.29.18.33.07,3.12.67-1.84,1.24-5.45,1.11-5.02-.1-4.38-1.78-2.59-2.4-.06-.06-.07-.05-1.67-1.31-.96-1.4-1.2-2.5-.5-3.48.63-3.95,2.36-3.86h0Z"/>
    </g>
    <g id="SK_Pp0901_000.005" data-name="SK Pp0901 000.005">
      <rect class="cls-1" x="34.82" y="107.89" width="3.07" height="20.57" transform="translate(-42.46 22.91) rotate(-22.5)"/>
      <path class="cls-1" d="M209.21,52.61l-2.13-5.14-2.13-5.14-1.82-4.35-30.73,12.73-4.53,1.88-8.77,3.63-1.11-1.56-2.53,1.05-42.24,17.5-63.62,26.35-3.28,1.36-2.65,1.1-.76-.9-5.06,2.09.11,1.17-4.85,2.01,9.3,22.46,1.03-.43,1.85,4.46,2.61,1.45,2.79.23,4.98-1.37,4.03.05,4.69,2.03,2.99,2.19,2.5,3.29,1.23,3.82-8.78,65.88.46,3.36,1.26,2.91,3.26,1.94,2.98-.03.08,1.41,6.59-.37,15.5-.54,6.05-.26-.21-1.46,10.73-.47,1.88-1.94.24-2.4-1.61-2.91-2.79-3.58-.98-3.22,7.68-56.35,1.31-2.83,2.08-3.15,2.07-2.1,4.2.23,5.93.39,5.73-.17,6.18-1.51,5.91-3.51,3.67-4.86,1.14-6.1-1.27-6.62-2.72-6.51-.88-2.63-.3-1.8.81-1.84,21.98-9.11,1.24-2.34-5.77-13.93,2.53-1.05-.32-1.89,8.77-3.63,4.53-1.88,30.73-12.73-1.79-4.37ZM147.55,116.67l1.47,5.42-.69,5.48-3.02,4.75-5.03,3.37-6.06,1.23-5.61-.12-5.06-2.06-2.86-2.65-1.91-1.5-1.22-1.78-1.4-2.91-.58-4.09.74-4.64,2.77-4.53,2.46-1.86,1.29,1.04,2.62,1.51,2.3.92,1.02,1.46.34,2.02,1.66,5.16,3.29,4.26,4.58,2.79,5.59,1.2.65-1.14-4.86-1.61-3.69-2.64-2.73-3.86-1.18-5.41.36-2.37.45-2.14.45-2.14,1.88-2.93,3.15.18,2.1.63,1.94,1.11,1.66,2.29,3.15,5.56Z"/>
    </g>
  </g>
</svg>