<?xml version="1.0" encoding="UTF-8"?>
<svg xmlns="http://www.w3.org/2000/svg" viewBox="0 0 32 32">
  <defs>
    <style>
      .cls-1 {
        fill: #09f;
        stroke: #fff;
        stroke-width: .5px;
      }

      .cls-2 {
        fill: #00c;
      }

      .cls-2, .cls-3 {
        stroke-width: 0px;
      }

      .cls-3 {
        fill: #003;
      }
    </style>
  </defs>
  <g id="Layer_3" data-name="Layer 3">
    <circle class="cls-3" cx="128" cy="128" r="128"/>
  </g>
  <g id="Layer_1" data-name="Layer 1">
    <g>
      <path class="cls-2" d="M146.94,208.97c-.98-.7-1.59-2.4-1.81-3.64-.8-4.76,1.07-12.53,3.85-16q.49-.72,21.9-6.01l2.81-.7c19.38-4.79,29.47-7.32,30.86-7.74,7.15-2.16,11.09-5.1,11.72-8.72.08-.51.12-1.27.07-1.61-.04-.36-.61-3.75-1.65-9.59-.52-2.86-1.16-6.5-1.75-9.79l-1.07-5.97c-.47-2.64-1.05-5.89-1.51-8.46l-4.2-23.58s-.41-2.15-.41-2.56c0-.76.55-1.15,1.09-1.15.4,0,.72.19,1.3.56.44.28,15.61,9.83,15.61,9.83q4.84,3.05,4.94,3.15.35.35-.46,21.09s-1.23,31.81-1.41,36.19l-.62,16.04-.45,1.36c-.8,2.41-2.54,4.91-5.02,7.24-3.21,2.99-6.27,4.57-9.38,4.82-7.21.62-38.29,3.42-46.19,4.16-1.6.15-10.98,1.02-10.98,1.02l-6.52.61-.76-.55ZM91.72,193.8c-2.36,0-3.44-.23-4.1-.87q-.52-.44-4.46-14.95l-.23-.84c-1.72-6.32-5.74-21.09-8.93-32.83l-3.41-12.55c-1.57-5.78-2.61-9.6-2.72-10.02-.04-.13-.07-.24-.1-.33-.45.1-1.17.26-2.03.46-.39.09-1.06.25-1.54.38.7,2.64,3.47,12.97,6.02,22.41l.8,2.97c1.13,4.22,3.19,11.86,6.79,25.22,2.42,9.05,2.34,9.34,2.27,9.62-1.04,3.3-16.37,7.28-23.32,7.28-.2,0-.39,0-.58,0-1.51-.05-2.26-.12-2.97-.45l-.99-.51-3.31-9.2c-1.74-4.86-3.61-10.1-4.17-11.64-.81-2.25-14.53-40.5-14.53-40.5-1.4-3.93-1.88-5.42-2.16-7.05-.78-4.51-1.06-8.24-1.05-13.77,0-6.86.44-9.08,2.03-10.3.99-.75,12.58-8.32,13.46-8.73.71-.32,1.69-.47,3-.47,1.01,0,2.2.09,3.53.28,1.45.21,2.46.3,3.27.3.66,0,1.23-.06,1.85-.2,1.26-.26,1.98-.59,2.73-1.28,1.37-1.27,2.35-3.13,4.18-7.95,2.36-6.19,3.99-8.6,6.44-9.54.37-.13,4.73-1.42,8.44-2.5,6.96-2.01,7.86-2.26,8.9-2.26.17,0,.33,0,.51.02.75.05,1.81.27,2.53.52,5.08,1.83,5.11,1.83,6.66,1.9.21,0,.41.01.61.01,2.47,0,3.8-.71,5.26-2.83.7-1.03,1.12-1.87,2.51-4.98,1.98-4.41,3.23-6.16,4.96-6.97.67-.3,10.27-2.51,10.67-2.6,8.06-1.84,10-2.23,10.9-2.23.06,0,.12,0,.17,0,2.14.15,4.01,1.4,8.71,5.85,4.71,4.45,6.52,5.7,8.42,5.78.17,0,.31.01.45.01.54,0,.87-.07,1.74-.38,1.72-.58,3.02-1.43,5.17-3.35,2.27-2.02,3.57-2.92,4.79-3.3.65-.23,6.39-1.13,8.55-1.46,4.22-.66,12.82-1.99,12.82-1.99l.99.48c1.16.56,2.91,2.42,4.05,3.92,3.66,4.82,8.47,13.59,9.9,18.05.25.76,1.24,6.11,1.85,9.51l4.14,23.45,4.38,24.7c.94,5.29,2.46,13.84,3.36,19,.54,3.03,1.14,6.4,1.62,9.14l.8,4.52c.73,4.08.81,4.63.46,5.33-1.62,3.14-12.75,6.32-22.4,7.72-2.85.42-5.54.64-7.77.64-4.55,0-5.4-.93-5.68-1.24-.26-.26-.41-.41-4.01-16.66-8.22-37.07-11.5-51.86-12.29-55.3-.54.1-1.46.3-3.03.66-.2.05-.36.09-.49.12.7,3.63,4.17,21.02,7.21,36.3.07.37,7.37,36.79,7.37,37.34,0,3.97-16.03,7.62-22.93,9-6.08,1.22-12.15,1.97-15.83,1.97-1.02,0-1.85-.06-2.46-.17-2.17-.42-2.28-.9-3.35-5.53,0,0-2.12-9.1-2.74-11.72-.8-3.46-1.77-7.64-2.36-10.16l-.29-1.26c-1.13-4.8-2.69-11.47-6.04-25.85l-.68-2.92c-1.74-7.4-3.36-14.4-3.63-15.56-.12-.53-.22-.98-.31-1.32-.94.18-2.58.53-3.57.76.96,4.52,5.73,26.11,11.96,54.11,3.98,17.89,3.89,18.17,3.81,18.44-1.13,3.57-19.7,8.05-28.92,8.31-.61.02-1.16.03-1.64.03Z"/>
      <path class="cls-2" d="M129.45,47.79s.08,0,.11,0c1.83.13,3.6,1.33,8.08,5.58,4.97,4.71,6.86,5.96,9.07,6.05.18,0,.34.01.49.01.68,0,1.13-.1,2.07-.44,1.84-.63,3.25-1.53,5.5-3.55,2.11-1.88,3.35-2.75,4.42-3.1.41-.14,4.19-.78,8.4-1.42,4.22-.66,8.76-1.36,10.08-1.56l2.42-.38.7.34c.84.41,2.41,1.94,3.69,3.63,3.63,4.77,8.35,13.38,9.74,17.75.19.56,1,4.78,1.81,9.38,1.97,11.16,2.17,12.3,4.14,23.45.94,5.28,1.92,10.85,2.19,12.35.27,1.5,1.25,7.07,2.19,12.35.94,5.28,2.45,13.84,3.36,19,.92,5.16,2,11.3,2.42,13.66.69,3.85.73,4.33.55,4.71-1.24,2.39-11.01,5.63-21.65,7.18-2.88.42-5.51.63-7.62.63-2.58,0-4.4-.31-4.95-.91-.16-.16-1.55-6.18-3.77-16.2-10.21-46.04-12.45-56.11-12.51-56.19,0,0-.03,0-.06,0-.29,0-1.64.27-3.96.81-1.02.23-1.38.39-1.38.56,0,.14,3.31,16.79,7.35,37.02,4.05,20.22,7.35,36.93,7.35,37.15,0,2.1-9.19,5.43-22.12,8.02-6.18,1.24-12.09,1.95-15.64,1.95-.94,0-1.71-.05-2.28-.16-1.53-.3-1.5-.2-2.58-4.86-.53-2.27-1.75-7.5-2.72-11.63-.95-4.13-2.16-9.27-2.66-11.41-1.2-5.11-2.89-12.35-6.72-28.77-1.74-7.4-3.36-14.4-3.63-15.56-.25-1.16-.52-2.16-.58-2.2,0,0-.01,0-.03,0-.4,0-5.28,1.04-5.42,1.16-.05.05,5.32,24.33,12.15,55.05,2.16,9.71,3.88,17.78,3.83,17.93-.84,2.66-18,7.32-27.99,7.6-.6.02-1.13.03-1.61.03-2.03,0-2.98-.17-3.41-.59-.34-.31-.16.36-4.42-15.34-1.72-6.32-5.74-21.09-8.93-32.83-3.19-11.74-5.96-21.89-6.13-22.56-.23-.86-.4-1.19-.57-1.19,0,0,0,0-.01,0-.14,0-1.38.27-2.75.59-2.22.52-2.5.63-2.45.89.05.25,3.33,12.48,6.21,23.12.83,3.08,2.89,10.77,7.58,28.19,1.31,4.91,2.31,8.93,2.27,9.1-.76,2.42-15.03,6.54-22.36,6.54-.19,0-.37,0-.55,0-1.55-.05-2.08-.13-2.58-.36l-.61-.31-3.17-8.83c-1.74-4.86-3.61-10.1-4.17-11.65-1.52-4.22-9.6-26.77-11.27-31.43-.8-2.24-2.27-6.32-3.25-9.07-1.42-3.99-1.86-5.38-2.11-6.88-.77-4.44-1.05-8.07-1.03-13.6,0-6.38.38-8.54,1.64-9.51,1.2-.91,12.63-8.32,13.27-8.61.57-.25,1.44-.38,2.58-.38.96,0,2.1.09,3.4.27,1.46.21,2.52.31,3.41.31.76,0,1.4-.07,2.07-.22,1.45-.3,2.31-.72,3.19-1.52,1.5-1.39,2.53-3.31,4.44-8.33,2.24-5.86,3.74-8.15,5.86-8.96.27-.09,4.02-1.2,8.36-2.47,6.64-1.91,7.72-2.22,8.62-2.22.15,0,.29,0,.45.02.67.05,1.64.25,2.27.47,5.18,1.86,5.25,1.88,6.94,1.95.23,0,.45.01.66.01,2.84,0,4.45-.9,6.08-3.27.73-1.08,1.17-1.94,2.6-5.14,1.83-4.07,3-5.78,4.47-6.47.31-.14,5.03-1.28,10.48-2.53,7.59-1.73,9.86-2.21,10.68-2.21M206.85,104.46c.1,0,.32.12.76.41.45.28,5.22,3.28,10.58,6.66,5.36,3.38,9.77,6.14,9.8,6.18.02.02-.31,9.18-.75,20.34-.44,11.16-1.06,27.45-1.41,36.19l-.61,15.9-.41,1.22c-.75,2.25-2.39,4.61-4.75,6.83-2.99,2.78-5.89,4.32-8.77,4.55-7.41.64-38.49,3.44-46.2,4.16-2.66.25-7.61.7-10.98,1.02l-6.14.58-.45-.33c-.59-.42-1.17-1.67-1.41-3-.75-4.46,1.05-11.96,3.64-15.2.41-.5-.98-.14,24.17-6.36,20.56-5.08,29.57-7.35,30.91-7.75,7.6-2.3,11.71-5.46,12.41-9.51.09-.58.14-1.44.08-1.91-.05-.45-.8-4.78-1.66-9.63-.88-4.85-2.13-11.93-2.81-15.76-.69-3.83-1.59-8.96-2.03-11.41s-1.36-7.63-2.05-11.49c-.69-3.88-1.42-7.97-1.63-9.13-.22-1.16-.39-2.24-.39-2.39,0-.1.02-.16.09-.16M129.45,45.79c-1.01,0-2.88.38-11.12,2.26-3.78.87-10.2,2.37-10.85,2.66-2.25,1.05-3.66,3.44-5.47,7.48-1.43,3.22-1.8,3.92-2.42,4.84-1.27,1.85-2.27,2.39-4.43,2.39-.18,0-.37,0-.57-.01q-1.42-.07-6.35-1.84c-.82-.29-1.97-.52-2.8-.58-.21-.01-.39-.02-.58-.02-1.19,0-2.1.26-9.18,2.3-3.28.96-8.07,2.36-8.48,2.51h-.02s-.02.02-.02.02c-3.11,1.19-4.87,4.47-7.02,10.11-1.75,4.6-2.7,6.44-3.93,7.58-.53.48-1.02.78-2.23,1.02-.57.12-1.08.18-1.66.18-.76,0-1.72-.09-3.12-.29-1.39-.19-2.63-.29-3.68-.29-1.45,0-2.56.18-3.39.55-.94.43-12.52,7.98-13.66,8.84-2.1,1.61-2.44,4.59-2.44,11.1-.02,5.59.27,9.37,1.06,13.94.28,1.7.77,3.22,2.2,7.21l1.45,4.05c.67,1.88,1.34,3.74,1.8,5.01.78,2.17,2.94,8.19,5.18,14.44,2.59,7.21,5.28,14.73,6.09,16.99.53,1.46,2.32,6.46,4.17,11.64l3.18,8.84.27.74.7.36.61.31.03.02.03.02c.88.41,1.71.5,3.37.55.2,0,.4,0,.61,0,4.29,0,10.15-1.26,14.2-2.44,9.17-2.67,9.82-4.73,10.06-5.5v-.04s.02-.04.02-.04c.16-.59.23-.83-2.26-10.14-3.58-13.28-5.63-20.91-6.77-25.15l-.82-3.04c-2.29-8.47-4.78-17.73-5.76-21.42.21-.05.4-.09.53-.12.4-.1.77-.18,1.1-.26.36,1.32,1.27,4.68,2.53,9.32l3.44,12.66c3.19,11.74,7.21,26.52,8.93,32.83l.23.85c4.01,14.74,4.03,14.81,4.78,15.45,1,.92,2.5,1.11,4.75,1.11.49,0,1.05,0,1.67-.03,4.76-.13,11.62-1.28,17.89-2.98,10.98-2.98,11.68-5.19,11.95-6.02.19-.64.25-.83-3.78-18.97-5.86-26.33-10.44-47.06-11.75-53.14.53-.12,1.11-.24,1.64-.35.02.11.05.22.08.34.26,1.13,1.88,8.13,3.64,15.59l.43,1.84c3.53,15.13,5.14,22.01,6.29,26.93l.24,1.02c.58,2.49,1.59,6.82,2.42,10.38.6,2.54,1.29,5.49,1.85,7.92l.87,3.72.02.08c1.07,4.64,1.33,5.75,4.04,6.27l.08.02c.7.13,1.57.19,2.66.19,3.74,0,9.88-.76,16.03-1.99,6.35-1.27,12.1-2.79,16.2-4.28,5.35-1.94,7.53-3.59,7.53-5.7,0-.55-4.02-20.72-7.39-37.54-1.86-9.33-5.89-29.52-7.03-35.35.66-.15,1.18-.27,1.6-.36,1.07,4.74,4.43,19.88,12.07,54.34,3.61,16.28,3.75,16.61,4.28,17.15.68.72,2.04,1.52,6.39,1.52,2.28,0,5.01-.22,7.91-.65,7.06-1.03,20.99-4.07,23.14-8.24.53-1.05.39-1.8-.36-5.98-.17-.95-.45-2.53-.78-4.41-.49-2.76-1.09-6.19-1.64-9.26-.91-5.15-2.42-13.71-3.36-18.99-.81-4.57-1.66-9.35-2.04-11.53l-.14-.82-.13-.75c-.38-2.15-1.24-6.98-2.06-11.6l-1.41-7.98-2.73-15.47c-.06-.35-1.51-8.55-1.89-9.67-1.47-4.6-6.26-13.35-10.05-18.32-1.15-1.52-3-3.54-4.41-4.22l-.69-.34-.56-.28-.62.1-2.42.38c-1.33.2-5.86.91-10.09,1.56-1.3.2-7.88,1.21-8.74,1.51-1.32.42-2.71,1.37-5.1,3.49-2.04,1.83-3.25,2.62-4.82,3.15-.86.3-1.07.33-1.43.33-.12,0-.25,0-.4-.01-1.43-.06-2.89-.87-7.79-5.51-4.4-4.17-6.67-5.94-9.32-6.12-.08,0-.16,0-.25,0h0ZM206.85,102.46c-1.03,0-2.09.81-2.09,2.16,0,.46.3,2.09.43,2.76.09.52.3,1.71.58,3.23.3,1.71.68,3.82,1.05,5.88l2.05,11.49.56,3.14c.45,2.54,1.01,5.7,1.47,8.27.28,1.57.66,3.7,1.07,5.99.58,3.28,1.23,6.91,1.75,9.77,1.01,5.71,1.59,9.1,1.64,9.49h0s0,.05,0,.05c.03.2,0,.84-.07,1.32-.56,3.2-4.26,5.87-11.02,7.91-1.38.42-11.45,2.94-30.81,7.73l-2.69.67c-10.57,2.61-15.88,3.93-18.57,4.63-2.73.72-3.41.92-4.01,1.78-2.91,3.67-4.87,11.79-4.03,16.75.27,1.51.99,3.42,2.22,4.3l.44.32.61.44.75-.07,6.14-.58,4.81-.45c2.32-.21,4.62-.43,6.16-.57,7.81-.73,38.89-3.53,46.19-4.16,3.32-.27,6.59-1.93,9.96-5.08,2.61-2.45,4.43-5.1,5.29-7.66l.41-1.22.09-.27v-.29s.62-15.9.62-15.9c.17-4.37.41-10.63.67-17.19.25-6.56.52-13.42.74-19,.22-5.58.41-10.67.55-14.36.07-1.85.12-3.34.16-4.38.08-2.29.08-2.48-.54-3.1q-.18-.18-4.98-3.2l-5.18-3.26c-6.74-4.25-10.21-6.43-10.6-6.67-.58-.37-1.11-.71-1.81-.71h0Z"/>
    </g>
    <path class="cls-1" d="M118.78,50c-5.44,1.25-10.16,2.39-10.48,2.53-1.47.69-2.64,2.41-4.47,6.47-1.42,3.21-1.86,4.07-2.6,5.14-1.75,2.55-3.49,3.39-6.74,3.25-1.69-.08-1.77-.09-6.94-1.95-.63-.22-1.59-.42-2.27-.47-1.14-.08-1.36-.02-9.07,2.2-4.35,1.27-8.1,2.38-8.36,2.47-2.13.81-3.63,3.1-5.86,8.96-1.91,5.02-2.94,6.94-4.44,8.33-.88.8-1.74,1.22-3.19,1.52-1.44.31-2.77.3-5.47-.09-2.81-.39-4.92-.36-5.97.11-.64.3-12.07,7.71-13.27,8.61-1.27.97-1.64,3.13-1.64,9.51-.02,5.53.27,9.16,1.03,13.6.25,1.5.69,2.89,2.11,6.88.98,2.75,2.45,6.83,3.25,9.07,1.67,4.66,9.76,27.2,11.27,31.43.56,1.55,2.44,6.79,4.17,11.65l3.17,8.83.61.31c.5.23,1.03.31,2.58.36,7.15.22,22.12-4.05,22.9-6.54.05-.17-.95-4.19-2.27-9.1-4.69-17.42-6.75-25.11-7.58-28.19-2.88-10.65-6.16-22.87-6.21-23.12-.05-.27.23-.38,2.45-.89,1.38-.33,2.61-.59,2.75-.59.17-.02.34.31.58,1.19.17.67,2.94,10.82,6.13,22.56,3.19,11.74,7.21,26.52,8.93,32.83,4.27,15.7,4.08,15.02,4.42,15.34.53.52,1.84.66,5.02.56,9.99-.28,27.14-4.94,27.99-7.6.05-.16-1.67-8.22-3.83-17.93-6.83-30.72-12.2-55-12.15-55.05.14-.13,5.36-1.24,5.44-1.16.06.05.33,1.05.58,2.2.27,1.16,1.89,8.16,3.63,15.56,3.83,16.42,5.52,23.66,6.72,28.77.5,2.14,1.7,7.29,2.66,11.41.97,4.13,2.19,9.37,2.72,11.63,1.08,4.66,1.05,4.57,2.58,4.86,2.7.5,10.1-.23,17.92-1.8,12.93-2.6,22.12-5.93,22.12-8.02,0-.22-3.3-16.93-7.35-37.15-4.03-20.23-7.35-36.88-7.35-37.02,0-.17.36-.33,1.38-.56,2.56-.59,3.94-.86,4.02-.8.06.08,2.3,10.15,12.51,56.19,2.22,10.02,3.61,16.04,3.77,16.2,1,1.09,6.18,1.22,12.57.28,10.65-1.55,20.42-4.78,21.65-7.18.19-.38.14-.86-.55-4.71-.42-2.36-1.5-8.51-2.42-13.66-.91-5.16-2.42-13.71-3.36-19s-1.92-10.85-2.19-12.35-1.25-7.07-2.19-12.35c-1.97-11.15-2.17-12.29-4.14-23.45-.81-4.6-1.63-8.82-1.81-9.38-1.39-4.36-6.11-12.98-9.74-17.75-1.28-1.69-2.85-3.22-3.69-3.63l-.7-.34-2.42.38c-1.33.2-5.86.91-10.08,1.56-4.21.64-7.99,1.28-8.4,1.42-1.08.34-2.31,1.22-4.42,3.1-2.25,2.02-3.66,2.92-5.5,3.55-1.16.41-1.56.47-2.56.42-2.2-.09-4.1-1.34-9.07-6.05-4.49-4.25-6.25-5.46-8.08-5.58-.72-.05-2.83.39-10.79,2.2ZM206.77,104.61c0,.16.17,1.24.39,2.39.2,1.16.94,5.25,1.63,9.13.69,3.86,1.61,9.04,2.05,11.49s1.34,7.58,2.03,11.41,1.94,10.91,2.81,15.76c.86,4.85,1.61,9.18,1.66,9.63.06.47.02,1.33-.08,1.91-.7,4.05-4.82,7.21-12.41,9.51-1.34.41-10.35,2.67-30.91,7.75-25.16,6.22-23.76,5.86-24.17,6.36-2.6,3.24-4.39,10.74-3.64,15.2.23,1.33.81,2.58,1.41,3l.45.33,6.14-.58c3.36-.31,8.32-.77,10.98-1.02,7.71-.72,38.79-3.52,46.2-4.16,2.88-.23,5.78-1.77,8.77-4.55,2.36-2.22,4-4.58,4.75-6.83l.41-1.22.61-15.9c.34-8.74.97-25.03,1.41-36.19s.77-20.33.75-20.34c-.03-.03-4.44-2.8-9.8-6.18s-10.13-6.38-10.58-6.66c-.73-.47-.84-.5-.84-.25Z"/>
  </g>
</svg>