<?xml version="1.0" encoding="UTF-8"?>
<svg xmlns="http://www.w3.org/2000/svg" viewBox="0 0 32 32">
  <defs>
    <style>
      .cls-1 {
        fill: #09f;
        stroke: #fff;
        stroke-width: .5px;
      }

      .cls-2 {
        fill: #00c;
      }

      .cls-2, .cls-3 {
        stroke-width: 0px;
      }

      .cls-3 {
        fill: #003;
      }
    </style>
  </defs>
  <g id="Layer_3" data-name="Layer 3">
    <circle class="cls-3" cx="128" cy="128" r="128"/>
  </g>
  <g id="Layer_1" data-name="Layer 1">
    <g>
      <path class="cls-2" d="M93.53,226.25c-15.06,0-25.95-15.34-27.75-39.08l-.06-.81,37.48-10.64.39.69c6.4,11.38,12.3,28.52,7.86,39.37-1.95,4.77-5.69,7.98-11.11,9.54-2.34.62-4.62.94-6.8.94h0ZM162.47,190.76c-2.18,0-4.46-.31-6.78-.93-5.44-1.57-9.18-4.78-11.13-9.55-4.44-10.85,1.46-27.99,7.86-39.37l.39-.69,37.48,10.64-.06.81c-1.79,23.74-12.68,39.08-27.75,39.08ZM64.03,173.53c-1.51-7.69-4.15-13.91-6.95-20.49-5.46-12.83-11.1-26.1-9.93-52.5,1.28-35,22.66-36.01,25.09-36.01.24,0,.37,0,.37,0h0c14.45,0,24.19,10.38,30.62,32.66,6.77,23.47,2.24,35.55-.47,42.77-2.99,8.98-4.14,16.83-3.49,23.96l.08.83-35.11,9.83-.21-1.06ZM156.65,129.27l.08-.83c.65-7.13-.5-14.98-3.5-23.99-2.69-7.18-7.23-19.27-.46-42.74,6.43-22.28,16.17-32.66,30.67-32.66.01,0,.13,0,.32,0,2.43,0,23.81,1.01,25.09,36.01,1.17,26.39-4.47,39.66-9.93,52.49-2.8,6.58-5.44,12.79-6.95,20.49l-.21,1.06-35.11-9.83Z"/>
      <path class="cls-2" d="M183.76,30.05c2.74,0,22.85,1.16,24.09,35.05,1.77,39.92-12.42,50.13-16.86,72.75l-33.27-9.32c.89-9.76-1.77-19.07-3.55-24.4-2.66-7.1-7.1-19.07-.44-42.14,6.65-23.07,16.41-31.94,29.72-31.94,0,0,.11,0,.31,0M72.24,65.54c.2,0,.31,0,.31,0,13.31,0,23.07,8.87,29.72,31.94s2.22,35.04-.44,42.14c-1.77,5.32-4.44,14.64-3.55,24.4l-33.27,9.32c-4.44-22.62-18.63-32.83-16.86-72.75,1.24-33.89,21.35-35.05,24.09-35.05M153.29,141.4l35.93,10.2c-1.57,20.82-10.8,38.16-26.75,38.16-2.06,0-4.24-.29-6.52-.9-19.96-5.77-10.65-33.27-2.66-47.46M102.71,176.89c7.98,14.2,17.3,41.7-2.66,47.46-2.29.61-4.46.9-6.52.9-15.95,0-25.18-17.34-26.75-38.16l35.93-10.2M183.76,28.05c-.17,0-.29,0-.35,0-14.99.02-25.03,10.63-31.6,33.38-6.85,23.75-2.27,36.02.48,43.36,2.95,8.87,4.08,16.57,3.44,23.55l-.15,1.66,1.6.45,33.27,9.32,2.09.58.42-2.12c1.49-7.59,4.11-13.76,6.89-20.29,5.24-12.33,11.19-26.31,10-52.93-1.31-35.92-23.56-36.96-26.09-36.96h0ZM72.24,63.54c-2.53,0-24.77,1.04-26.09,36.98-1.18,26.6,4.76,40.58,10.01,52.92,2.78,6.53,5.4,12.7,6.89,20.29l.42,2.12,2.09-.58,33.27-9.32,1.6-.45-.15-1.66c-.63-6.98.49-14.68,3.44-23.55,2.75-7.34,7.33-19.61.48-43.36-6.56-22.75-16.6-33.36-31.6-33.38-.07,0-.19,0-.35,0h0ZM152.31,139.04l-.77,1.37c-6.51,11.57-12.49,29.06-7.91,40.24,2.07,5.06,6.03,8.47,11.76,10.13,2.44.65,4.81.98,7.08.98,15.63,0,26.91-15.71,28.74-40.01l.12-1.63-1.57-.45-35.93-10.2-1.52-.43h0ZM103.69,174.53l-1.52.43-35.93,10.2-1.57.45.12,1.63c1.83,24.31,13.12,40.01,28.74,40.01,2.26,0,4.63-.33,7.04-.97,5.77-1.67,9.73-5.07,11.8-10.14,4.58-11.18-1.4-28.67-7.91-40.24l-.77-1.37h0Z"/>
    </g>
    <path class="cls-1" d="M101.83,139.62c2.66-7.1,7.1-19.07.44-42.14-6.65-23.07-16.41-31.94-29.72-31.94,0,0-23.07-1.33-24.4,35.04-1.77,39.92,12.42,50.13,16.86,72.75l33.27-9.32c-.89-9.76,1.77-19.07,3.55-24.4ZM102.71,176.89l-35.93,10.2c1.77,23.51,13.31,42.59,33.27,37.26,19.96-5.77,10.65-33.27,2.66-47.46h0ZM154.17,104.14c-2.66-7.1-7.1-19.07-.44-42.14,6.65-23.07,16.41-31.94,29.72-31.94,0,0,23.07-1.33,24.4,35.04,1.77,39.92-12.42,50.13-16.86,72.75l-33.27-9.32c.89-9.76-1.77-19.07-3.55-24.4ZM153.28,141.4l35.93,10.2c-1.77,23.51-13.31,42.59-33.27,37.26-19.96-5.77-10.65-33.27-2.66-47.46h0Z"/>
  </g>
</svg>