<?xml version="1.0" encoding="UTF-8"?>
<svg xmlns="http://www.w3.org/2000/svg" viewBox="0 0 32 32">
  <defs>
    <style>
      .cls-1 {
        fill: #09f;
        stroke: #fff;
        stroke-width: .5px;
      }

      .cls-2 {
        fill: #00c;
      }

      .cls-2, .cls-3 {
        stroke-width: 0px;
      }

      .cls-3 {
        fill: #003;
      }
    </style>
  </defs>
  <g id="Layer_3" data-name="Layer 3">
    <circle class="cls-3" cx="128" cy="128" r="128"/>
  </g>
  <g id="Layer_1" data-name="Layer 1">
    <g>
      <path class="cls-2" d="M33.94,185l7.78-34h162.05l-7.78,34H33.94ZM43.09,145l7.78-34h162.05l-7.78,34H43.09ZM52.23,105l7.78-34h162.05l-7.78,34H52.23Z"/>
      <path class="cls-2" d="M220.81,72l-7.32,32H53.49l7.32-32h160M211.66,112l-7.32,32H44.34l7.32-32h160M202.51,152l-7.32,32H35.19l7.32-32h160M223.32,70H59.21l-.36,1.55-7.32,32-.56,2.45h164.1l.36-1.55,7.32-32,.56-2.45h0ZM214.17,110H50.07l-.36,1.55-7.32,32-.56,2.45h164.1l.36-1.55,7.32-32,.56-2.45h0ZM205.02,150H40.92l-.36,1.55-7.32,32-.56,2.45h164.1l.36-1.55,7.32-32,.56-2.45h0Z"/>
    </g>
    <path class="cls-1" d="M204.34,144H44.34l7.32-32h160l-7.32,32ZM220.81,72H60.81l-7.32,32h160l7.32-32ZM202.51,152H42.51l-7.32,32h160l7.32-32Z"/>
  </g>
</svg>