<?xml version="1.0" encoding="UTF-8"?>
<svg xmlns="http://www.w3.org/2000/svg" viewBox="0 0 32 32">
  <defs>
    <style>
      .cls-1 {
        fill: #09f;
        stroke: #fff;
        stroke-width: .5px;
      }

      .cls-2 {
        fill: #00c;
      }

      .cls-2, .cls-3 {
        stroke-width: 0px;
      }

      .cls-3 {
        fill: #003;
      }
    </style>
  </defs>
  <g id="Layer_3" data-name="Layer 3">
    <circle class="cls-3" cx="128" cy="128" r="128"/>
  </g>
  <g id="Layer_1" data-name="Layer 1">
    <g>
      <path class="cls-2" d="M103.5,229c-15.64,0-28.86-11.88-28.86-25.94s13.22-26.4,28.86-26.4,28.65,11.84,28.65,26.4-12.85,25.94-28.65,25.94ZM89.7,166.02L125.92,26.8l55.75,13.29-48.78,136.73-43.2-10.8Z"/>
      <path class="cls-2" d="M126.65,28l53.71,12.81-48.1,134.82-41.34-10.34L126.65,28M103.5,177.66c15.51,0,27.65,11.69,27.65,25.4s-12.14,24.94-27.65,24.94-27.86-11.45-27.86-24.94,12.58-25.4,27.86-25.4M125.2,25.6l-.49,1.9-35.73,137.29-.51,1.95,1.96.49,41.34,10.34,1.76.44.61-1.71,48.1-134.82.75-2.1-2.17-.52-53.71-12.81-1.91-.45h0ZM103.5,175.66c-16.19,0-29.86,12.55-29.86,27.4s13.67,26.94,29.86,26.94,29.65-12.09,29.65-26.94-13.3-27.4-29.65-27.4h0Z"/>
    </g>
    <path class="cls-1" d="M103.5,228c-15.28,0-27.86-11.45-27.86-24.94s12.58-25.4,27.86-25.4,27.65,11.69,27.65,25.4-12.14,24.94-27.65,24.94ZM132.26,175.63l-41.34-10.34L126.65,28l53.71,12.81-48.1,134.82Z"/>
  </g>
</svg>