<?xml version="1.0" encoding="UTF-8"?>
<svg id="Layer_1" data-name="Layer 1" xmlns="http://www.w3.org/2000/svg" version="1.1" viewBox="0 0 512 196">
  <defs>
    <style>
      .cls-1 {
        fill: #fff;
        stroke-width: 0px;
      }
    </style>
  </defs>
  <path class="cls-1" d="M95,111.2h-13.1V31h-27.2v80.3h-13V31H14.8v80.3H1.7V31.4h13.4v-13.4h26.5v13.4h13.6v-13.4h26.5v13.4h13.4v79.9ZM199.1,97.9h-13.5v13.4h-79.9V18h80v13.4h13.4v66.5ZM185.5,97.9V31.4h-66.5v66.5h66.5ZM303.1,111.2h-13.1v-53.5h-27.2v53.5h-13v-53.5h-27v53.5h-13.1V44.8h80v13.4h13.4v53.1ZM407.1,97.9h-13.5v13.4h-66.8v26.8h-13.1V44.8h80v13.4h13.4v39.7ZM393.6,97.9v-39.7h-66.5v39.7h66.5ZM511.1,97.9h-13.5v13.4h-79.9v-13.1h80.3v-27h-66.9v-13.1h66.9v-27h-80.3v-13h80v13.4h13.4v26.4h-13.5v13.8h13.5v26.4Z"/>
  <g>
    <path class="cls-1" d="M58.5,182.2h-16.2l-3.8-21.7c-1-5.1-1.5-17.4-1.5-17.4h-.2s-.5,12.2-1.5,17.4l-3.5,21.7H15l-11.2-54h15l3.7,23.4c.6,3.9,1,11.1,1.2,15.2h.3c.3-4.2.6-10.8,1.3-14.9l4.2-23.7h15l4.7,23.3c.7,3.3,1,9.7,1.4,14.9h.3c.3-5.2.6-11.3,1.1-14.7l3.2-23.5h14.3l-10.9,54Z"/>
    <path class="cls-1" d="M77.2,182.2v-54h15.4v54h-15.4Z"/>
    <path class="cls-1" d="M134.3,182.2l-11.9-21.4-2.9,3.5v17.9h-14.7v-54h14.7v17.4l13.8-17.4h17.2l-17.7,21.6,19.2,32.4h-17.7Z"/>
    <path class="cls-1" d="M157.3,182.2v-54h15.4v54h-15.4Z"/>
  </g>
</svg>